<?xml version="1.0" standalone="no"?>
<!DOCTYPE svg PUBLIC "-//W3C//DTD SVG 20010904//EN"
 "http://www.w3.org/TR/2001/REC-SVG-20010904/DTD/svg10.dtd">
<svg version="1.0" xmlns="http://www.w3.org/2000/svg"
 width="272.000000pt" height="235.000000pt" viewBox="0 0 272.000000 235.000000"
 preserveAspectRatio="xMidYMid meet">

<g transform="translate(0.000000,235.000000) scale(0.100000,-0.100000)"
fill="#000000" stroke="none">
<path d="M1155 2110 c-100 -22 -132 -34 -220 -76 -120 -57 -231 -142 -305
-234 -19 -24 -41 -49 -47 -56 -7 -7 -13 -15 -13 -19 0 -4 -12 -25 -27 -48 -46
-70 -53 -81 -63 -107 -6 -14 -14 -34 -19 -45 -79 -180 -89 -482 -21 -650 4
-11 20 -51 35 -88 83 -204 250 -374 480 -487 33 -17 68 -30 78 -30 9 0 17 -4
17 -8 0 -10 93 -30 200 -43 400 -47 793 173 967 542 34 72 44 99 69 184 26 88
26 351 0 455 -10 41 -22 80 -26 85 -4 6 -10 23 -14 40 -4 16 -11 32 -14 35 -4
3 -16 23 -27 45 -83 168 -227 316 -397 409 -192 105 -447 142 -653 96z m258
-296 c41 -21 85 -62 103 -96 16 -30 19 -124 5 -160 -14 -36 -66 -85 -105 -99
-20 -7 -36 -17 -36 -21 0 -4 1 -8 3 -8 1 0 27 -9 57 -20 30 -12 82 -30 115
-41 117 -40 115 -38 115 -75 0 -18 -4 -36 -10 -39 -5 -3 -10 -13 -10 -22 0 -8
-6 -29 -14 -46 -14 -34 -38 -98 -81 -217 -15 -41 -33 -88 -40 -105 -7 -16 -23
-59 -35 -95 -13 -36 -26 -69 -30 -75 -4 -5 -10 -27 -14 -47 -4 -21 -11 -38
-16 -38 -6 0 -10 -8 -10 -17 0 -10 -8 -37 -17 -60 -20 -48 -45 -55 -97 -28
-15 8 -34 15 -42 15 -7 0 -28 6 -46 14 -18 8 -53 22 -78 31 -121 46 -125 50
-96 117 8 18 25 60 37 93 13 33 27 64 31 70 4 5 8 18 8 30 0 11 6 32 14 46 7
15 24 55 36 90 12 35 25 69 30 74 4 6 10 21 13 35 7 32 35 110 46 130 5 9 12
30 15 48 4 17 12 34 17 37 5 4 9 16 9 29 0 12 7 31 15 42 23 30 18 44 -15 44
-16 0 -30 5 -30 10 0 6 -6 10 -13 10 -38 0 -97 100 -97 164 -1 131 153 236
263 180z"/>
</g>
</svg>
